<?xml version="1.0" encoding="UTF-8"?>
<svg width="36px" height="36px" viewBox="0 0 36 36" version="1.1" xmlns="http://www.w3.org/2000/svg" xmlns:xlink="http://www.w3.org/1999/xlink">
    <!-- Generator: sketchtool 51.1 (57501) - http://www.bohemiancoding.com/sketch -->
    <title>A8CFA4B4-CE42-4D24-ADDA-F2147D92606E</title>
    <desc>Created with sketchtool.</desc>
    <defs></defs>
    <g id="Symbols" stroke="none" stroke-width="1" fill="none" fill-rule="evenodd">
        <g id="icon/product/white/auto" fill="#FFFFFF" fill-rule="nonzero">
            <g id="icon/product/auto">
                <g id="Group-2" transform="translate(4.000000, 12.000000)">
                    <path d="M3.2,7 L4.74278135,3.14304662 C5.50209811,1.24475472 7.34064186,1.26375119e-15 9.38516481,0 L18.6148352,1.77635684e-15 C20.6593581,1.40078407e-15 22.4979019,1.24475472 23.2572186,3.14304662 L24.8,7 L27.5,7 C27.7761424,7 28,7.22385763 28,7.5 L28,8.5 C28,8.77614237 27.7761424,9 27.5,9 L26.6530154,9 C27.4913994,9.89719988 28,11.1008512 28,12.4140141 L28,20 C28,20.5522847 27.5522847,21 27,21 L25,21 C24.4477153,21 24,20.5522847 24,20 L24,19 L4,19 L4,20 C4,20.5522847 3.55228475,21 3,21 L1,21 C0.44771525,21 -9.5165745e-15,20.5522847 -1.15463195e-14,20 L5.41529078e-06,12.4140081 C5.41529078e-06,11.1008477 0.508603915,9.89719859 1.34698484,9 L0.5,9 C0.223857625,9 -8.8817842e-16,8.77614237 -8.8817842e-16,8.5 L-8.8817842e-16,7.5 C-8.8817842e-16,7.22385763 0.223857625,7 0.5,7 L3.2,7 Z M5.20460568,7.3736506 C8.01185359,7.1245502 10.9436517,7 14,7 C17.0563483,7 19.9881464,7.1245502 22.7953943,7.3736506 L21.4002653,3.88582797 C20.9446752,2.74685283 19.841549,2 18.6148352,2 L9.38516481,2 C8.15845104,2 7.05532479,2.74685283 6.59973473,3.88582797 L5.20460568,7.3736506 Z M4,10 C2.8954305,10 2,10.8954305 2,12 C2,13.1045695 2.8954305,14 4,14 C5.1045695,14 6,13.1045695 6,12 C6,10.8954305 5.1045695,10 4,10 Z M24,10 C22.8954305,10 22,10.8954305 22,12 C22,13.1045695 22.8954305,14 24,14 C25.1045695,14 26,13.1045695 26,12 C26,10.8954305 25.1045695,10 24,10 Z M9,15 C8.44771525,15 8,15.4477153 8,16 C8,16.5522847 8.44771525,17 9,17 L19,17 C19.5522847,17 20,16.5522847 20,16 C20,15.4477153 19.5522847,15 19,15 L9,15 Z" id="Combined-Shape"></path>
                </g>
            </g>
        </g>
    </g>
</svg>