<?xml version="1.0" encoding="UTF-8"?>
<svg width="36px" height="36px" viewBox="0 0 36 36" version="1.1" xmlns="http://www.w3.org/2000/svg" xmlns:xlink="http://www.w3.org/1999/xlink">
    <!-- Generator: sketchtool 51.1 (57501) - http://www.bohemiancoding.com/sketch -->
    <title>795347C4-0341-4F15-B7A3-E94DAAE316EF</title>
    <desc>Created with sketchtool.</desc>
    <defs></defs>
    <g id="Symbols" stroke="none" stroke-width="1" fill="none" fill-rule="evenodd">
        <g id="icon/product/white/hotels" fill="#FFFFFF" fill-rule="nonzero">
            <g id="icon/product/hotels">
                <g id="ico_hotel_002">
                    <g id="Group" transform="translate(2.000000, 8.000000)">
                        <path d="M21,7 L29,7 C29.5522847,7 30,7.44771525 30,8 L30,23 L32,23 L32,25 L21,25 L21,7 Z M19,7 L19,25 L0,25 L0,23 L2,23 L2,1 C2,0.44771525 2.44771525,1.01453063e-16 3,0 L18,0 C18.5522847,-1.01453063e-16 19,0.44771525 19,1 L19,7 Z M5,10 L5,14 L9,14 L9,10 L5,10 Z M5,17 L5,21 L9,21 L9,17 L5,17 Z M12,10 L12,14 L16,14 L16,10 L12,10 Z M12,3 L12,7 L16,7 L16,3 L12,3 Z M21,10 L21,14 L27,14 L27,10 L21,10 Z M21,17 L21,21 L27,21 L27,17 L21,17 Z M12,17 L12,21 L16,21 L16,17 L12,17 Z M5,3 L5,7 L9,7 L9,3 L5,3 Z" id="Combined-Shape"></path>
                    </g>
                </g>
            </g>
        </g>
    </g>
</svg>