<?xml version="1.0" encoding="UTF-8"?>
<svg width="80px" height="80px" viewBox="0 0 80 80" version="1.1" xmlns="http://www.w3.org/2000/svg" xmlns:xlink="http://www.w3.org/1999/xlink">
    <!-- Generator: sketchtool 51.1 (57501) - http://www.bohemiancoding.com/sketch -->
    <title>0530BABA-5E6D-4B9C-9692-5A45579894A0</title>
    <desc>Created with sketchtool.</desc>
    <defs></defs>
    <g id="Symbols" stroke="none" stroke-width="1" fill="none" fill-rule="evenodd">
        <g id="ico_bus_refund">
            <g>
                <circle id="Oval-3" fill="#E8E8E8" cx="33" cy="30" r="21"></circle>
                <path d="M27,36 L27,19 C31.027832,18.3333333 34.7069499,18 38.0373535,18 C43.032959,18 52.9350511,20 59.0710449,20 C63.1617074,20 67.1380258,19.6666667 71,19 L71,45 C65.3974717,45.6666667 61.408458,46 59.032959,46 C58.3623114,46 57.3005483,45.9291522 56,45.8141254 L56,58 C56,60.209139 54.209139,62 52,62 L46,62 C46,60.3431458 44.6568542,59 43,59 C41.3431458,59 40,60.3431458 40,62 L14,62 C11.790861,62 10,60.209139 10,58 L10,40 C10,37.790861 11.790861,36 14,36 L27,36 Z M27,38 L14,38 C12.8954305,38 12,38.8954305 12,40 L12,58 C12,59.1045695 12.8954305,60 14,60 L38.4160437,60 C39.1876003,58.2340952 40.949681,57 43,57 C45.050319,57 46.8123997,58.2340952 47.5839563,60 L52,60 C53.1045695,60 54,59.1045695 54,58 L54,45.6230236 C50.8869181,45.3081991 47.0505886,44.8564331 43.8716043,44.5094295 C43.953355,44.6543655 44,44.8217355 44,45 C44,45.5522847 43.5522847,46 43,46 C42.4477153,46 42,45.5522847 42,45 C42,44.7452896 42.095229,44.512821 42.2520258,44.3362557 C40.3256234,44.1356324 38.7964056,44 38.0678711,44 C34.3785807,44 30.6892904,44.3333333 27,45 L27,38 Z M15,55 L21,55 L21,57 L15,57 L15,55 Z M15,52 L21,52 L21,54 L15,54 L15,52 Z M15,50 L21,50 L21,51 L15,51 L15,50 Z M15,46 L21,46 L21,49 L15,49 L15,46 Z M15,44 L21,44 L21,45 L15,45 L15,44 Z M15,41 L21,41 L21,43 L15,43 L15,41 Z M43,49 C42.4477153,49 42,48.5522847 42,48 C42,47.4477153 42.4477153,47 43,47 C43.5522847,47 44,47.4477153 44,48 C44,48.5522847 43.5522847,49 43,49 Z M43,52 C42.4477153,52 42,51.5522847 42,51 C42,50.4477153 42.4477153,50 43,50 C43.5522847,50 44,50.4477153 44,51 C44,51.5522847 43.5522847,52 43,52 Z M43,55 C42.4477153,55 42,54.5522847 42,54 C42,53.4477153 42.4477153,53 43,53 C43.5522847,53 44,53.4477153 44,54 C44,54.5522847 43.5522847,55 43,55 Z M59.0710449,22 C56.6514931,22 53.8216472,21.7386649 49.4060232,21.1803027 C48.9491646,21.1225322 48.480317,21.0623909 47.8700884,20.9834882 C41.8141851,20.2004593 39.9681386,20 38.0373535,20 C35.2853796,20 32.2723991,20.2370781 29,20.7128119 L29,42.6501263 C32.0216985,42.2167725 35.0445517,42 38.0678711,42 C39.3377096,42 41.0888082,42.1805768 48.4867954,43.0125277 C48.7101728,43.0376419 48.7101728,43.0376419 48.9335987,43.0627307 C54.7552215,43.7162028 57.6842767,44 59.032959,44 C61.0587386,44 64.3921275,43.7400442 69,43.2188543 L69,21.3333519 C65.7642002,21.7778766 62.4543502,22 59.0710449,22 Z M49,36 C51.209139,36 53,34.209139 53,32 C53,29.790861 51.209139,28 49,28 C46.790861,28 45,29.790861 45,32 C45,34.209139 46.790861,36 49,36 Z M49,38 C45.6862915,38 43,35.3137085 43,32 C43,28.6862915 45.6862915,26 49,26 C52.3137085,26 55,28.6862915 55,32 C55,35.3137085 52.3137085,38 49,38 Z M36,33 C34.8954305,33 34,32.1045695 34,31 C34,29.8954305 34.8954305,29 36,29 C37.1045695,29 38,29.8954305 38,31 C38,32.1045695 37.1045695,33 36,33 Z M62,35 C60.8954305,35 60,34.1045695 60,33 C60,31.8954305 60.8954305,31 62,31 C63.1045695,31 64,31.8954305 64,33 C64,34.1045695 63.1045695,35 62,35 Z" id="Combined-Shape" fill="#000000" fill-rule="nonzero"></path>
            </g>
        </g>
    </g>
</svg>