<svg xmlns="http://www.w3.org/2000/svg" width="80" height="80" viewBox="0 0 80 80">
    <g fill="none" fill-rule="nonzero">
        <path fill="#E8E8E8" d="M60 40c0 11.046-8.954 20-20 20s-20-8.954-20-20c0-11.051 8.954-20 20-20s20 8.949 20 20"/>
        <path fill="#212121" d="M40 10c-16.542 0-30 13.458-30 30s13.458 30 30 30 30-13.458 30-30-13.458-30-30-30zm0 62C22.355 72 8 57.645 8 40S22.355 8 40 8s32 14.355 32 32-14.355 32-32 32z"/>
        <path fill="#212121" d="M40 14c-14.337 0-26 11.663-26 26s11.663 26 26 26 26-11.663 26-26-11.663-26-26-26zm0 54c-15.439 0-28-12.561-28-28s12.561-28 28-28 28 12.561 28 28-12.561 28-28 28z"/>
        <path fill="#212121" d="M31 22v36h18.002L49 22H31zm18 38H31c-1.103 0-2-.897-2-2V22c0-1.103.897-2 2-2h18c1.103 0 2 .897 2 2v36c0 1.103-.897 2-2 2z"/>
        <path fill="#212121" d="M30 30h20v-2H30zM30 52h20v-2H30zM39 26h2v-2h-2zM35 26h2v-2h-2zM43 26h2v-2h-2zM37 56h6v-2h-6zM23 43h2V33h-2zM23 47h2v-2h-2zM55 43h2V33h-2zM55 47h2v-2h-2z"/>
    </g>
</svg>
