<?xml version="1.0" encoding="UTF-8"?>
<svg width="36" height="36" class="_3YJnr" viewBox="0 0 36 36" xmlns="http://www.w3.org/2000/svg"><g fill="none" fill-rule="evenodd"><circle fill="#755499" cx="18" cy="18" r="18"></circle><path d="M22.577 27.76c-.197-.054-.585-.114-.935-.264-6.134-2.642-10.59-6.97-13.123-13.187-.85-2.085.037-3.845 2.176-4.564.384-.13.76-.138 1.138 0 .913.336 3.224 3.517 3.276 4.47.04.73-.457 1.124-.95 1.458-.93.632-.934 1.433-.537 2.326.9 2.018 2.432 3.406 4.418 4.306.722.328 1.41.295 1.903-.45.876-1.328 1.95-1.263 3.125-.44.59.415 1.187.82 1.747 1.27.76.612 1.722 1.122 1.268 2.407-.473 1.336-2.11 2.68-3.506 2.667zm-4.51-18.348c4.308.145 8.017 4.09 7.964 8.344-.004.417.146 1.036-.476 1.024-.595-.012-.44-.64-.492-1.057-.572-4.517-2.64-6.65-7.125-7.34-.372-.056-.938.025-.91-.467.042-.728.715-.457 1.04-.504zm5.753 7.582c-.042.312.14.846-.365.923-.68.103-.548-.52-.615-.92-.456-2.748-1.42-3.756-4.19-4.375-.408-.092-1.043-.028-.937-.656.1-.6.67-.395 1.1-.343 2.77.332 5.03 2.733 5.007 5.37zm-2.105-.5c.013.347-.025.714-.436.763-.298.035-.494-.214-.524-.522-.114-1.133-.712-1.803-1.848-1.985-.34-.055-.675-.164-.516-.624.106-.308.39-.34.677-.346 1.226-.03 2.665 1.44 2.645 2.714z" fill-rule="nonzero" fill="#FFF"></path></g></svg>