<?xml version="1.0" encoding="UTF-8"?>
<svg width="36" height="36" viewBox="0 0 36 36" xmlns="http://www.w3.org/2000/svg"><g fill="none" fill-rule="evenodd"><circle fill="#65CF72" cx="18" cy="18" r="18"></circle><path d="M23.65 19.584c-.264-.13-1.567-.76-1.81-.846-.243-.086-.42-.13-.597.13-.176.26-.684.847-.84 1.02-.153.174-.308.195-.573.065-.265-.13-1.12-.405-2.13-1.29-.79-.69-1.32-1.54-1.476-1.802-.154-.26-.016-.4.117-.53.12-.116.266-.303.398-.455.133-.152.177-.26.265-.434.088-.172.044-.324-.022-.454-.065-.13-.595-1.41-.816-1.93-.215-.508-.434-.44-.596-.447-.155-.01-.332-.01-.508-.01-.177 0-.464.065-.707.325-.243.26-.928.89-.928 2.17 0 1.28.95 2.515 1.082 2.69.133.173 1.87 2.8 4.528 3.925.632.268 1.126.428 1.51.548.636.198 1.214.17 1.67.103.51-.074 1.568-.628 1.79-1.235.22-.608.22-1.13.154-1.237-.068-.108-.244-.173-.51-.304zm-4.835 6.478h-.004c-1.58 0-3.132-.417-4.486-1.205l-.322-.188-3.336.858.89-3.192-.21-.327C10.465 20.63 10 19.04 10 17.405c0-4.77 3.956-8.648 8.818-8.648 2.355 0 4.57.9 6.233 2.536 1.666 1.635 2.582 3.808 2.58 6.12 0 4.768-3.956 8.648-8.815 8.648zm7.503-16.01C24.316 8.085 21.652 7.002 18.815 7 12.968 7 8.21 11.668 8.208 17.405c0 1.834.487 3.625 1.416 5.203L8.12 28l5.622-1.447c1.55.83 3.293 1.266 5.07 1.267h.003c5.846 0 10.605-4.67 10.607-10.406 0-2.78-1.1-5.395-3.104-7.362z" fill="#FFF"></path></g></svg>