<svg xmlns="http://www.w3.org/2000/svg" width="80" height="80" viewBox="0 0 80 80">
    <g fill="none" fill-rule="nonzero">
        <path fill="#E8E8E8" d="M60 52c0 11.045-8.954 20-20 20s-20-8.955-20-20c0-11.046 8.954-20 20-20s20 8.954 20 20z"/>
        <path fill="#212121" d="M40 10c-9.925 0-18 8.075-18 18s8.075 18 18 18 18-8.075 18-18-8.075-18-18-18m0 38c-11.028 0-20-8.972-20-20S28.972 8 40 8s20 8.972 20 20-8.972 20-20 20"/>
        <path fill="#212121" d="M40 37c-2.757 0-5-2.243-5-5h2c0 1.654 1.346 3 3 3s3-1.346 3-3c0-1.344-1.07-1.936-2.962-2.866l-.958-.474C37.167 27.72 35 26.655 35 24c0-2.757 2.243-5 5-5s5 2.243 5 5h-2c0-1.654-1.346-3-3-3s-3 1.346-3 3c0 1.344 1.07 1.936 2.962 2.866l.958.474C42.833 28.28 45 29.345 45 32c0 2.757-2.243 5-5 5"/>
        <path fill="#212121" d="M39 20h2v-3h-2zM39 39h2v-3h-2zM32 66H19v-3c-.002-.056-.056-1.642-1.707-3.293l-7-7C8.026 50.44 8 48.099 8 48V32c0-2.206 1.794-4 4-4s4 1.794 4 4v8h-2v-8c0-1.103-.897-2-2-2s-2 .897-2 2v16c.001.056.056 1.642 1.707 3.293l7 7C20.974 60.56 21 62.901 21 63v1h9v-7c0-.023-.036-2.622-1.707-4.293L18.586 43H18c-1.103 0-2 .897-2 2v.586l6.707 6.707-1.414 1.414L14 46.414V45c0-2.206 1.794-4 4-4h1.414l10.293 10.293C31.974 53.56 32 56.86 32 57v9zM61 66H48v-9c0-.14.026-3.44 2.293-5.707L60.586 41H62c2.206 0 4 1.794 4 4v1.414l-7.293 7.293-1.414-1.414L64 45.586V45c0-1.103-.897-2-2-2h-.586l-9.707 9.707C50.02 54.395 50 56.974 50 57v7h9v-1c0-.099.026-2.44 2.293-4.707l7-7c1.651-1.651 1.705-3.237 1.707-3.304V32c0-1.103-.897-2-2-2s-2 .897-2 2v8h-2v-8c0-2.206 1.794-4 4-4s4 1.794 4 4v16c0 .099-.026 2.44-2.293 4.707l-7 7c-1.651 1.651-1.706 3.237-1.707 3.304V66z"/>
        <path fill="#212121" d="M63 72h-2v-6H48v6h-2v-6c0-1.102.897-2 2-2h13c1.103 0 2 .898 2 2v6zM34 72h-2v-6H19v6h-2v-6c0-1.102.897-2 2-2h13c1.103 0 2 .898 2 2v6zM30 29h2v-2h-2zM48 29h2v-2h-2z"/>
        <path fill="#212121" d="M40 14c-7.72 0-14 6.28-14 14s6.28 14 14 14 14-6.28 14-14-6.28-14-14-14m0 30c-8.822 0-16-7.178-16-16s7.178-16 16-16 16 7.178 16 16-7.178 16-16 16"/>
    </g>
</svg>
