<?xml version="1.0" encoding="UTF-8"?>
<svg width="80px" height="80px" viewBox="0 0 80 80" version="1.1" xmlns="http://www.w3.org/2000/svg" xmlns:xlink="http://www.w3.org/1999/xlink">
    <!-- Generator: sketchtool 51.1 (57501) - http://www.bohemiancoding.com/sketch -->
    <title>3C524FEB-5495-4056-B415-18C031993EAC</title>
    <desc>Created with sketchtool.</desc>
    <defs></defs>
    <g id="Symbols" stroke="none" stroke-width="1" fill="none" fill-rule="evenodd">
        <g id="ico_bus_ok">
            <g>
                <circle id="Oval-3" fill="#E8E8E8" cx="36" cy="50" r="21"></circle>
                <path d="M22.0196757,42.0886657 L14.0583086,42.0886657 C13.4810494,42.0886657 13,41.6111692 13,41.0381734 L13,28.1616846 C13,27.5886888 13.4249269,27.1669002 14.0021862,27.1669002 L20.0153033,27.1669002 C20.66472,26.7371534 20.9874229,26.5779879 21.4925248,25.3603718 C21.9976266,24.1427557 22.6246808,20.2270151 22.5889174,18.8425446 C22.564865,17.9114265 22.564865,17.0280579 22.925652,16.3118132 C23.3826489,15.380695 24.2004328,14.8315741 25.7157383,15.0464475 C27.1107815,15.2135713 28.0969327,16.1446894 28.7222969,17.4100551 C29.2905045,18.3650481 29.2277008,20.6225455 28.5338859,24.1825471 L34.6953266,24.1825471 C36.0422648,24.1825471 37.1967833,24.6958558 38.0145672,25.6747237 C38.8323512,26.6058418 39.0568409,27.6046053 39.0568409,29.01322 L39.0568409,32.1408221 L60.9815622,32.1408221 C62.8210455,32.1408221 64.4244757,33.3834962 64.8706159,35.1548769 L68.8793606,51.0714268 C69.4163269,53.2034284 68.1104354,55.3638394 65.9625704,55.8968398 C65.6445943,55.9757467 65.3180692,56.0156469 64.990307,56.0156469 L62.9830164,56.0156469 C62.5380028,57.731876 60.9684787,59 59.1005646,59 C57.2326505,59 55.6631264,57.731876 55.2181128,56.0156469 L35.9239893,56.0156469 C35.4789758,57.731876 33.9094517,59 32.0415376,59 C30.1736234,59 28.6040993,57.731876 28.1590858,56.0156469 L26.0284204,56.0156469 C23.8144518,56.0156469 22.0196757,54.2341264 22.0196757,52.0365094 L22.0196757,42.0886657 Z M24.0240481,42.0886657 L24.0240481,52.0365094 C24.0240481,53.1353179 24.9214361,54.0260782 26.0284204,54.0260782 L28.1590858,54.0260782 C28.6040993,52.3098491 30.1736234,51.0417251 32.0415376,51.0417251 C33.9094517,51.0417251 35.4789758,52.3098491 35.9239893,54.0260782 L55.2181128,54.0260782 C55.6631264,52.3098491 57.2326505,51.0417251 59.1005646,51.0417251 C60.9684787,51.0417251 62.5380028,52.3098491 62.9830164,54.0260782 L64.990307,54.0260782 C65.1541881,54.0260782 65.3174506,54.0061281 65.4764387,53.9666746 C66.5503712,53.7001744 67.2033169,52.6199689 66.9348338,51.5539681 L62.926089,35.6374182 C62.7030189,34.7517279 61.9013038,34.1303908 60.9815622,34.1303908 L38.8626143,34.1303908 C38.7238847,34.7913701 38.5186992,35.4669543 38.2729628,36.1199595 L43.0655856,36.1199595 C43.6190778,36.1199595 44.0677718,36.5653397 44.0677718,37.1147439 L44.0677718,45.0730188 C44.0677718,45.6224231 43.6190778,46.0678032 43.0655856,46.0678032 L28.0327928,46.0678032 C27.4793007,46.0678032 27.0306066,45.6224231 27.0306066,45.0730188 L27.0306066,42.0886657 L24.0240481,42.0886657 Z M37.3676857,38.1095283 C37.0607632,38.6774773 36.7409433,39.1811063 36.4351218,39.5818091 C35.2565508,41.1336727 33.5488256,42.0886657 31.4081559,42.0886657 L29.034979,42.0886657 L29.034979,44.0782345 L42.0633994,44.0782345 L42.0633994,38.1095283 L37.3676857,38.1095283 Z M47.0743304,36.1199595 L53.0874475,36.1199595 C53.6409396,36.1199595 54.0896337,36.5653397 54.0896337,37.1147439 L54.0896337,45.0730188 C54.0896337,45.6224231 53.6409396,46.0678032 53.0874475,46.0678032 L47.0743304,46.0678032 C46.5208382,46.0678032 46.0721442,45.6224231 46.0721442,45.0730188 L46.0721442,37.1147439 C46.0721442,36.5653397 46.5208382,36.1199595 47.0743304,36.1199595 Z M57.0961922,36.1199595 L60.2833408,36.1199595 C60.761064,36.1199595 61.172376,36.4546644 61.2660652,36.9196506 L62.8695631,44.8779256 C62.9781119,45.4166608 62.6261273,45.9407381 62.0833836,46.0484852 C62.0186693,46.0613325 61.9528347,46.0678032 61.8868387,46.0678032 L57.0961922,46.0678032 C56.5427001,46.0678032 56.094006,45.6224231 56.094006,45.0730188 L56.094006,37.1147439 C56.094006,36.5653397 56.5427001,36.1199595 57.0961922,36.1199595 Z M48.0765165,38.1095283 L48.0765165,44.0782345 L52.0852613,44.0782345 L52.0852613,38.1095283 L48.0765165,38.1095283 Z M58.0983784,38.1095283 L58.0983784,44.0782345 L60.6643681,44.0782345 L59.4617447,38.1095283 L58.0983784,38.1095283 Z M32.0415376,53.0312938 C30.9345533,53.0312938 30.0371652,53.9220541 30.0371652,55.0208625 C30.0371652,56.119671 30.9345533,57.0104313 32.0415376,57.0104313 C33.1485218,57.0104313 34.0459099,56.119671 34.0459099,55.0208625 C34.0459099,53.9220541 33.1485218,53.0312938 32.0415376,53.0312938 Z M59.1005646,53.0312938 C57.9935803,53.0312938 57.0961922,53.9220541 57.0961922,55.0208625 C57.0961922,56.119671 57.9935803,57.0104313 59.1005646,57.0104313 C60.2075489,57.0104313 61.104937,56.119671 61.104937,55.0208625 C61.104937,53.9220541 60.2075489,53.0312938 59.1005646,53.0312938 Z M15.0043724,29.156469 L15.0043724,40.099097 L18.0109309,40.099097 L18.0109309,29.156469 L15.0043724,29.156469 Z M26.8221519,18.3172985 C26.5094698,17.6726782 26.0498397,17.2284261 25.4511612,17.1235572 C25.0422692,17.0519328 24.8792874,17.1040166 24.825797,17.2190565 C24.6814822,17.5294293 24.6527947,17.8123849 24.6814822,18.794795 C24.7295871,20.4421579 23.7670421,25.2171229 23.1657304,26.697362 C22.684681,27.8672284 21.0551693,29.156469 20.0153033,29.156469 L20.0153033,40.099097 L31.0393514,40.099097 C32.4824995,40.099097 33.98177,39.3430609 34.751449,38.3164434 C35.6894953,37.1227022 37.0524685,34.3850556 37.0524685,32.42732 L37.0524685,29.01322 C37.0524685,28.1059767 36.8841012,27.2703578 36.4030518,26.697362 C35.9701074,26.1959907 35.3687957,25.885618 34.6953266,25.885618 L27.4555336,25.885618 L27.3593237,25.885618 C26.7820644,25.8378683 26.34912,25.336497 26.3972249,24.7396264 C26.4934348,23.6175096 27.3143097,19.3319229 26.8221519,18.3172985 Z" id="Combined-Shape" fill="#000000" fill-rule="nonzero"></path>
            </g>
        </g>
    </g>
</svg>