<?xml version="1.0" encoding="UTF-8"?>
<svg width="80px" height="80px" viewBox="0 0 80 80" version="1.1" xmlns="http://www.w3.org/2000/svg" xmlns:xlink="http://www.w3.org/1999/xlink">
    <!-- Generator: sketchtool 51.1 (57501) - http://www.bohemiancoding.com/sketch -->
    <title>4EC6FE6D-BADA-4015-814F-FAA847494F11</title>
    <desc>Created with sketchtool.</desc>
    <defs></defs>
    <g id="Symbols" stroke="none" stroke-width="1" fill="none" fill-rule="evenodd">
        <g id="ico_bus_choise">
            <g>
                <circle id="Oval-3" fill="#E8E8E8" cx="49" cy="34" r="21"></circle>
                <path d="M40.2827624,48.2545117 C37.7180553,52.2794118 34.2904678,56.8612413 30,62 C19.3333333,49.2243707 14,39.8910373 14,34 C14,25.163444 21.163444,18 30,18 C37.4142594,18 43.6506565,23.0430277 45.4661475,29.8860391 C46.8649641,29.3148156 48.3957175,29 50,29 C56.627417,29 62,34.372583 62,41 C62,45.418278 58,52.418278 50,62 C45.489231,56.5973832 42.2501518,52.0155537 40.2827624,48.2545117 Z M41.5137474,46.2538198 C43.09636,49.579357 45.9219482,53.8010842 50,58.8495516 C56.6805706,50.5792685 60,44.527645 60,41 C60,35.4771525 55.5228475,31 50,31 C48.5243856,31 47.1234203,31.3196109 45.8625539,31.8933829 C45.9532188,32.5827306 46,33.2859021 46,34 C46,37.1194185 44.5045825,41.2040251 41.5137474,46.2538198 Z M44,34 C44,26.2680135 37.7319865,20 30,20 C22.2680135,20 16,26.2680135 16,34 C16,38.9946537 20.6519333,47.3883502 30,58.8575572 C39.3480667,47.3883502 44,38.9946537 44,34 Z M50,43 C51.1045695,43 52,42.1045695 52,41 C52,39.8954305 51.1045695,39 50,39 C48.8954305,39 48,39.8954305 48,41 C48,42.1045695 48.8954305,43 50,43 Z M50,45 C47.790861,45 46,43.209139 46,41 C46,38.790861 47.790861,37 50,37 C52.209139,37 54,38.790861 54,41 C54,43.209139 52.209139,45 50,45 Z M30,38 C32.209139,38 34,36.209139 34,34 C34,31.790861 32.209139,30 30,30 C27.790861,30 26,31.790861 26,34 C26,36.209139 27.790861,38 30,38 Z M30,40 C26.6862915,40 24,37.3137085 24,34 C24,30.6862915 26.6862915,28 30,28 C33.3137085,28 36,30.6862915 36,34 C36,37.3137085 33.3137085,40 30,40 Z M30,60 L50,60 L50,62 L30,62 L30,60 Z" id="Combined-Shape" fill="#000000" fill-rule="nonzero"></path>
            </g>
        </g>
    </g>
</svg>