<?xml version="1.0" encoding="UTF-8"?>
<svg xmlns="http://www.w3.org/2000/svg" class="_3YJnr" width="36" height="36" viewBox="0 0 36 36"><g fill="none" fill-rule="evenodd"><circle fill="#4AA8EA" cx="18" cy="18" r="18"></circle><path d="M27.38 19.482c.075-.483.115-.978.115-1.482 0-5.244-4.25-9.495-9.495-9.495-.503 0-1 .04-1.482.117-.874-.54-1.907-.854-3.013-.854-3.17 0-5.738 2.568-5.738 5.737 0 1.106.314 2.137.855 3.014-.075.483-.116.975-.116 1.48 0 5.245 4.25 9.494 9.494 9.494.503 0 1-.04 1.482-.115.875.54 1.906.853 3.012.853 3.17 0 5.74-2.57 5.74-5.738 0-1.106-.314-2.137-.855-3.013zm-4.872 2.836c-.402.58-.992 1.03-1.763 1.355-.772.326-1.686.488-2.74.488-1.264 0-2.31-.22-3.136-.666-.587-.32-1.063-.75-1.43-1.284-.366-.536-.552-1.06-.552-1.57 0-.303.115-.565.34-.78.225-.214.517-.322.86-.322.282 0 .524.085.72.253.197.17.36.413.495.736.16.373.335.685.52.934.186.247.445.452.782.613.333.16.776.242 1.33.242.76 0 1.372-.165 1.84-.488.473-.327.7-.725.7-1.205 0-.383-.123-.687-.373-.924-.253-.24-.58-.424-.984-.55-.407-.13-.953-.267-1.637-.41-.918-.202-1.686-.435-2.308-.703-.623-.27-1.12-.637-1.487-1.1-.37-.47-.553-1.054-.553-1.744 0-.658.194-1.247.583-1.76.388-.513.95-.907 1.682-1.18.73-.274 1.59-.41 2.573-.41.787 0 1.468.09 2.044.27.575.183 1.054.424 1.437.726.38.302.66.62.84.954.176.335.265.662.265.98 0 .297-.115.566-.34.802-.223.236-.51.357-.844.356-.3 0-.538-.07-.702-.217-.16-.142-.328-.37-.51-.685-.23-.442-.504-.785-.824-1.03-.31-.243-.825-.368-1.54-.367-.66 0-1.19.135-1.59.4-.4.268-.593.58-.594.945 0 .228.067.42.2.586.133.165.32.31.56.43.24.125.485.22.73.29.25.07.662.17 1.236.306.72.155 1.37.328 1.957.517.585.19 1.084.418 1.496.69.415.273.74.62.972 1.037.233.42.35.93.35 1.534 0 .725-.2 1.377-.604 1.954z" fill="#FFF"></path></g></svg>