<?xml version="1.0" encoding="UTF-8"?>
<svg xmlns="http://www.w3.org/2000/svg" class="_3YJnr __web-inspector-hide-shortcut__" width="36" height="36" viewBox="0 0 36 36"><g fill="none" fill-rule="evenodd"><circle fill="#4896D0" cx="18" cy="18" r="18"></circle><g fill-rule="nonzero"><path d="M13.714 25.613c-.625 0-.518-.236-.734-.833l-1.837-6.07 14.143-8.42-11.572 15.323z" fill="#D4D2D2"></path><path d="M13.714 25.548c.482 0 .695-.222.965-.484l2.57-2.51-3.208-1.94-.328 4.934z" fill="#9E9E9E"></path><path d="M14.216 20.65l7.772 5.763c.887.49 1.527.237 1.748-.826L26.9 10.625c.324-1.304-.495-1.895-1.344-1.508L6.98 16.307c-1.27.51-1.26 1.22-.232 1.536l4.767 1.493 11.037-6.988c.52-.317 1-.147.607.203l-8.944 8.1z" fill="#FFF"></path></g></g></svg>