<?xml version="1.0" encoding="UTF-8"?>
<svg width="36px" height="36px" viewBox="0 0 36 36" version="1.1" xmlns="http://www.w3.org/2000/svg" xmlns:xlink="http://www.w3.org/1999/xlink">
    <!-- Generator: sketchtool 51.1 (57501) - http://www.bohemiancoding.com/sketch -->
    <title>1E0E0B2E-A4DB-4572-AAF1-D5829C7C7680</title>
    <desc>Created with sketchtool.</desc>
    <defs></defs>
    <g id="Symbols" stroke="none" stroke-width="1" fill="none" fill-rule="evenodd">
        <g id="icon/product/white/tours" fill="#FFFFFF" fill-rule="nonzero">
            <g id="icon/product/tours">
                <path d="M19.2729492,27.0448323 C23.5296235,27.3434767 27.2972669,29.1142716 29.8748212,31.7591487 C32.1002087,34.0426608 3.88780311,34.0229169 6.12666008,31.7361258 C8.7171478,29.0901756 12.5012354,27.3241339 16.7729492,27.0402622 L16.7729492,19.25 C16.7729492,18.5596441 17.3325933,18 18.0229492,18 C18.7133052,18 19.2729492,18.5596441 19.2729492,19.25 L19.2729492,27.0448323 Z M19.2729492,9.79963878 C21.286026,7.78659792 24.0029399,6.76352163 27.3577748,6.76352163 L27.3577748,9.26352163 C24.6078001,9.26352163 22.4882169,10.0577683 20.9292423,11.6813158 C25.4341683,10.7875559 29.1213903,12.0065796 31.8212361,15.3732126 L29.8709135,16.9372591 C27.641372,14.1570827 24.6129895,13.2711306 20.5829879,14.3210237 C24.1514515,15.5020674 26.7791867,17.8591728 28.3977986,21.3515078 L26.1295749,22.4027741 C24.5497541,18.9941354 21.8770903,16.9609016 17.9967209,16.2344988 C14.1163515,16.9609016 11.4436878,18.9941354 9.863867,22.4027741 L7.59564322,21.3515078 C9.21425518,17.8591728 11.8419904,15.5020674 15.410454,14.3210237 C11.3804523,13.2711306 8.35206985,14.1570827 6.12252837,16.9372591 L4.1722057,15.3732126 C6.8720516,12.0065796 10.5592736,10.7875559 15.0641996,11.6813158 C13.5052249,10.0577683 11.3856417,9.26352163 8.63566707,9.26352163 L8.63566707,6.76352163 C12.019731,6.76352163 14.7547097,7.80450272 16.7729492,9.85248017 L16.7729492,5.00195312 L19.2729492,5.00195312 L19.2729492,9.79963878 Z" id="Combined-Shape"></path>
            </g>
        </g>
    </g>
</svg>