<?xml version="1.0" encoding="UTF-8"?>
<svg width="36px" height="36px" viewBox="0 0 36 36" version="1.1" xmlns="http://www.w3.org/2000/svg" xmlns:xlink="http://www.w3.org/1999/xlink">
    <!-- Generator: sketchtool 51.1 (57501) - http://www.bohemiancoding.com/sketch -->
    <title>43B87EF9-1F26-4FB8-8438-D8DAF0169B29</title>
    <desc>Created with sketchtool.</desc>
    <defs></defs>
    <g id="Symbols" stroke="none" stroke-width="1" fill="none" fill-rule="evenodd">
        <g id="icon/product/white/activites" fill="#FFFFFF" fill-rule="nonzero">
            <g id="icon/product/activites">
                <path d="M13.5215413,9.71008938 L22.4372109,6.10136601 C22.7603884,5.97055604 23.1024422,5.96042812 23.413412,6.04981267 C23.5363407,6.07174135 23.6563924,6.10899495 23.770698,6.16095201 L32.1207041,9.95640685 C32.6561957,10.199812 33,10.7337414 33,11.3219567 L33,30.4878445 C33,31.3162716 32.3284271,31.9878445 31.5,31.9878445 C31.2386667,31.9878445 30.9818678,31.9195686 30.7550417,31.7897804 L23.0228216,27.3654598 L14.1809846,31.8705914 C13.6553793,32.1384001 13.0460458,32.0666967 12.6029403,31.7366972 L3.79240142,27.0230535 C3.30456045,26.7620583 3,26.2537105 3,25.7004409 L3,7.50578285 C3,6.67735572 3.67157288,6.00578285 4.5,6.00578285 C4.70161413,6.00578285 4.90115924,6.04642699 5.08671096,6.12528647 L13.5215413,9.71008938 Z M5,8.26156569 L5,25.4008817 L13,29.6808866 L13,11.6615657 L5,8.26156569 Z M23,22 L26.524918,23.8531591 L26.5255524,23.8532596 C26.5260968,23.8531662 26.5264624,23.8526492 26.526369,23.8521049 L25.8531695,19.927051 L28.7048881,17.1473124 L28.7051797,17.1467401 C28.7052592,17.1461935 28.7048805,17.1456861 28.7043339,17.1456067 L24.7633558,16.572949 L23.0008967,13.001817 L23.0004426,13.0013628 C22.9999473,13.0011184 22.9993477,13.0013217 22.9991033,13.001817 L21.2366442,16.572949 L17.2956661,17.1456067 L17.2950938,17.1458983 C17.2947083,17.1462937 17.2947164,17.1469269 17.2951119,17.1473124 L20.1468305,19.927051 L19.473631,23.8521049 L19.4737315,23.8527393 C19.4739885,23.8532281 19.4745931,23.8534161 19.475082,23.8531591 L23,22 Z" id="Combined-Shape"></path>
            </g>
        </g>
    </g>
</svg>