<?xml version="1.0" encoding="UTF-8"?>
<svg width="36px" height="36px" viewBox="0 0 36 36" version="1.1" xmlns="http://www.w3.org/2000/svg" xmlns:xlink="http://www.w3.org/1999/xlink">
    <!-- Generator: sketchtool 51.1 (57501) - http://www.bohemiancoding.com/sketch -->
    <title>F48A4BA4-91E4-4EE2-94FB-FA2838C8D726</title>
    <desc>Created with sketchtool.</desc>
    <defs></defs>
    <g id="Symbols" stroke="none" stroke-width="1" fill="none" fill-rule="evenodd">
        <g id="icon/product/white/bus" fill="#FFFFFF">
            <g id="icon/product/bus">
                <path d="M8,22 L8,13 C8,11.8954305 8.8954305,11 10,11 L26,11 C27.1045695,11 28,11.8954305 28,13 L28,22 L8,22 Z M26,24 C27.1045695,24 28,24.8954305 28,26 C28,27.1045695 27.1045695,28 26,28 C24.8954305,28 24,27.1045695 24,26 C24,24.8954305 24.8954305,24 26,24 Z M10,24 C11.1045695,24 12,24.8954305 12,26 C12,27.1045695 11.1045695,28 10,28 C8.8954305,28 8,27.1045695 8,26 C8,24.8954305 8.8954305,24 10,24 Z M30,22 L30,27 L30,32 C30,32.5522847 29.5522847,33 29,33 L27,33 C26.4477153,33 26,32.5522847 26,32 L26,30 L10,30 L10,32 C10,32.5522847 9.55228475,33 9,33 L7,33 C6.44771525,33 6,32.5522847 6,32 L6,27 L6,22 L4.5,22 C3.94771525,22 3.5,21.5522847 3.5,21 L3.5,17 C3.5,16.4477153 3.94771525,16 4.5,16 L6,16 L6,13.4117647 C6,7.67647059 12.5,6 18,6 C24.0775,6 30,7.67647059 30,13.4117647 L30,16 L31.5,16 C32.0522847,16 32.5,16.4477153 32.5,17 L32.5,21 C32.5,21.5522847 32.0522847,22 31.5,22 L30,22 Z" id="Combined-Shape"></path>
            </g>
        </g>
    </g>
</svg>