<?xml version="1.0" encoding="UTF-8"?>
<svg width="36px" height="36px" viewBox="0 0 36 36" version="1.1" xmlns="http://www.w3.org/2000/svg" xmlns:xlink="http://www.w3.org/1999/xlink">
    <!-- Generator: sketchtool 51.1 (57501) - http://www.bohemiancoding.com/sketch -->
    <title>B8E56DA9-E024-4175-A893-1BF48D1BD141</title>
    <desc>Created with sketchtool.</desc>
    <defs></defs>
    <g id="Symbols" stroke="none" stroke-width="1" fill="none" fill-rule="evenodd">
        <g id="icon/product/white/train" fill="#FFFFFF">
            <g id="icon/main/train-2">
                <path d="M22,25 C22,23.8933333 22.8933333,23 24,23 C25.1066667,23 26,23.8933333 26,25 C26,26.1066667 25.1066667,27 24,27 C22.8933333,27 22,26.1066667 22,25 Z M10.8566381,18.1126347 C13.2377587,20.0375449 15.6188794,21 18,21 C20.3811238,21 22.7622477,20.0375423 25.1433715,18.1126269 L25.1433676,18.1126221 C26.3176253,17.1633448 27,15.734248 27,14.2242783 L27,13.6666667 C27,12.0384768 25.800392,10.6591478 24.1879401,10.4333139 C22.1252919,10.1444432 20.062646,10 18,10 C15.937354,10 13.8747081,10.1444432 11.8120621,10.4333296 L11.8120599,10.4333139 C10.199608,10.6591478 9,12.0384768 9,13.6666667 L9.00000129,14.2242851 C9.00000129,15.7342574 9.6823777,17.1633566 10.8566381,18.1126347 Z M10,25 C10,23.8933333 10.8933333,23 12,23 C13.1066667,23 14,23.8933333 14,25 C14,26.1066667 13.1066667,27 12,27 C10.8933333,27 10,26.1066667 10,25 Z M24.8335204,31.2147706 C22.8689667,32.3446097 20.4979949,33 18,33 C15.5047529,33 13.1362496,32.3460508 11.1729641,31.2184974 L9.79536511,33.5144958 C9.61464186,33.8157012 9.28913503,34 8.93787218,34 L8.00436029,34 C7.53540592,34 7.15524329,33.6198374 7.15524329,33.150883 C7.15524329,32.9969857 7.19706895,32.8459818 7.27624847,32.7140159 L9.08444597,29.7003534 C7.18227333,27.9616289 6,25.6570719 6,23.0861244 L6,11.3588517 C6,6.66985646 12.4321139,4 17.8642277,4 C23.8667135,4 30,6.66985646 30,11.3588517 L30,23.0861244 C30,25.6545343 28.8200594,27.9570793 26.9211845,29.6952032 L28.7324721,32.7140159 C28.8116516,32.8459818 28.8534773,32.9969857 28.8534773,33.150883 C28.8534773,33.6198374 28.4733147,34 28.0043603,34 L27.0708484,34 C26.7195855,34 26.3940787,33.8157012 26.2133555,33.5144958 L24.8335204,31.2147706 Z M18,5 C16.8954305,5 16,5.8954305 16,7 C16,8.1045695 16.8954305,9 18,9 C19.1045695,9 20,8.1045695 20,7 C20,5.8954305 19.1045695,5 18,5 Z" id="Combined-Shape"></path>
            </g>
        </g>
    </g>
</svg>